<svg xmlns="http://www.w3.org/2000/svg" fill="none" viewBox="-1.5 -1.5 48 48" id="Finger-Print-Outline--Streamline-Ionic-Outline.svg"><desc>Finger Print Outline Streamline Icon: https://streamlinehq.com</desc><path fill="#c9ddfd" d="M34.31465625 6.6174375c-0.16434375 0.000421875 -0.32578124999999997 -0.04329375 -0.46753124999999995 -0.12656250000000002 -3.9005624999999995 -2.088290625 -7.272937499999999 -2.974228125 -11.31590625 -2.974228125 -4.022812500000001 0 -7.8425625 0.99140625 -11.31684375 2.974228125 -0.49134375 0.27773437500000003 -1.0968749999999998 0.08437499999999999 -1.3816875 -0.4254 -0.12703125 -0.24603750000000002 -0.15571875 -0.531234375 -0.08015625000000001 -0.797653125 0.07565625 -0.266428125 0.24975000000000003 -0.49408125 0.487125 -0.6367218750000001 3.7471875 -2.125209375 7.98375 -3.236390625 12.291562500000001 -3.2238281250000003 4.32684375 0 8.10609375 0.99140625 12.2510625 3.20625 0.24178125 0.13297499999999998 0.421875 0.355425 0.5015625 0.6196406250000001 0.07978125 0.264215625 0.0526875 0.5491406249999999 -0.07528125 0.793640625 -0.076875 0.17360625000000002 -0.20203125 0.321496875 -0.36046875 0.426178125 -0.1584375 0.10469062500000001 -0.34359375 0.16175625 -0.5334375 0.16445625ZM5.24128125 17.691656249999998c-0.21109687500000002 -0.0015 -0.416653125 -0.06778125 -0.5888718749999999 -0.18984375 -0.224071875 -0.1665 -0.374765625 -0.41353125 -0.420346875 -0.688875 -0.045571875 -0.2754375 0.01753125 -0.5579062499999999 0.176015625 -0.7876875 2.0118187499999998 -2.953125 4.570359375 -5.2734375 7.619296875 -6.897684375 6.379125 -3.413653125 14.5468125 -3.4382625 20.946093750000003 -0.021093749999999998 3.04809375 1.6242468749999999 5.60746875 3.9234656250000004 7.61925 6.855496875 0.157875 0.2300625 0.2205 0.51225 0.17503125 0.7875 -0.0455625 0.27515625 -0.19584375 0.5220937499999999 -0.41934374999999996 0.6890625 -0.10846875 0.081 -0.23240625 0.13903125 -0.36412500000000003 0.17025 -0.13171875000000002 0.031218750000000003 -0.26859374999999996 0.03515625 -0.40181249999999996 0.011437500000000001 -0.13340625 -0.0238125 -0.26034375 -0.074625 -0.37321875 -0.14934375 -0.11287499999999999 -0.07481249999999999 -0.2090625 -0.17193750000000002 -0.2829375 -0.28546875 -1.828125 -2.6578125 -4.14403125 -4.74609375 -6.8870625 -6.2015625000000005 -5.8306875 -3.1007812500000003 -13.287374999999999 -3.1007812500000003 -19.0978125 0.021093749999999998 -2.76328125 1.4765625 -5.0792625000000005 3.5859375 -6.9073875000000005 6.2401875 -0.078825 0.1396875 -0.194371875 0.2551875 -0.33411562499999997 0.33384375000000005 -0.13974375 0.07875 -0.29835 0.11765625 -0.458653125 0.1126875Zm12.69759375 25.46371875c-0.13424999999999998 0.0013125 -0.26728125 -0.02634375 -0.38990625 -0.08090625 -0.122625 -0.0545625 -0.232125 -0.13490625 -0.32109375 -0.2355 -1.76746875 -1.83871875 -2.7255 -3.0234375 -4.083375 -5.572312500000001 -1.40625 -2.59453125 -2.1331875 -5.75859375 -2.1331875 -9.154687500000001 0 -6.26484375 5.160093750000001 -11.36953125 11.49965625 -11.36953125 6.3395624999999995 0 11.503124999999999 5.104687500000001 11.503124999999999 11.36953125 0.0039375 0.13584375 -0.0193125 0.27121875 -0.06853125 0.397875 -0.04921875 0.12674999999999997 -0.123375 0.24234375 -0.21815625 0.33975 -0.09468750000000001 0.09759374999999999 -0.2079375 0.175125 -0.33318749999999997 0.228 -0.12515625 0.0530625 -0.2596875 0.08025 -0.39571874999999995 0.08025 -0.1359375 0 -0.27046875 -0.0271875 -0.395625 -0.08025 -0.12525 -0.052875 -0.23859375 -0.13040625 -0.33318749999999997 -0.228 -0.09478125 -0.09740625 -0.1689375 -0.21300000000000002 -0.21815625 -0.33975 -0.04921875 -0.12665625 -0.0725625 -0.26203125000000005 -0.06853125 -0.397875 0 -5.104687500000001 -4.24696875 -9.26015625 -9.467625 -9.26015625 -5.220750000000001 0 -9.47203125 4.15546875 -9.47203125 9.26015625 0 3.0375 0.64959375 5.84296875 1.8887812499999999 8.12109375 1.30078125 2.42578125 2.1973125 3.459375 3.7590937499999995 5.104687500000001 0.18525 0.20475000000000002 0.28781249999999997 0.471 0.28781249999999997 0.74709375 0 0.27609374999999997 -0.1025625 0.54234375 -0.28781249999999997 0.74709375 -0.19940625 0.20128125 -0.46912499999999996 0.31715625 -0.75234375 0.3234375Zm14.56790625 -3.9023437499999996c-2.41790625 0 -4.551 -0.6328125 -6.29821875 -1.8773437499999999 -1.48865625 -1.0434375 -2.70478125 -2.42925 -3.546 -4.04071875 -0.8413125 -1.6115625 -1.28296875 -3.4015312499999997 -1.28803125 -5.21953125 -0.005718750000000001 -0.136875 0.0163125 -0.27365625 0.064875 -0.40190625 0.0485625 -0.12825 0.12243749999999999 -0.24525 0.21731250000000002 -0.34425 0.094875 -0.099 0.208875 -0.17765625000000002 0.33487500000000003 -0.231375 0.1261875 -0.0538125 0.26184375 -0.0815625 0.39899999999999997 -0.0815625 0.1370625 0 0.27281249999999996 0.02775 0.39890625 0.0815625 0.126 0.053718749999999996 0.24 0.132375 0.33496875 0.231375 0.09478125 0.099 0.16874999999999998 0.216 0.21721875 0.34425 0.0485625 0.12825 0.07059375000000001 0.26503125 0.064875 0.40190625 0.00346875 1.4765625 0.36356249999999996 2.930625 1.0497187499999998 4.2380625s1.67803125 2.4297187499999997 2.89134375 3.27140625c1.44225 1.0125000000000002 3.12890625 1.49409375 5.1609375 1.49409375 0.7077187500000001 -0.0125625 1.4131875 -0.08315625 2.109375 -0.2109375 0.5484374999999999 -0.10546875 1.0766250000000002 0.27421874999999996 1.1776875 0.86484375 0.0515625 0.27253125 -0.00721875 0.55453125 -0.16321875 0.78384375 -0.15609375 0.2293125 -0.39665625 0.387375 -0.6691875 0.43959375 -0.80925 0.1599375 -1.6315312499999999 0.2446875 -2.4564375000000003 0.25312500000000004v0.0035625Zm-4.0843125 4.341749999999999c-0.08915625 -0.0036562499999999998 -0.17765625000000002 -0.0178125 -0.263625 -0.042187499999999996 -3.23090625 -0.928125 -5.34375 -2.1726562499999997 -7.55859375 -4.4296875 -2.84503125 -2.93203125 -4.40859375 -6.834375 -4.40859375 -11.010937499999999 0 -3.4171875 2.8036875 -6.2015625000000005 6.256875 -6.2015625000000005 3.45328125 0 6.2578125 2.7843750000000003 6.2578125 6.2015625000000005 0 2.2570312500000003 1.88971875 4.0921875000000005 4.225875 4.0921875000000005 2.3360625 0 4.225781250000001 -1.83515625 4.225781250000001 -4.0921875000000005 0 -7.95234375 -6.60328125 -14.40703125 -14.729625 -14.40703125 -5.77003125 0 -11.05228125 3.3328125 -13.42884375 8.500781250000001 -0.7910625 1.70859375 -1.198875 3.7125 -1.198875 5.90625 0 1.6453125 0.14150625 4.23984375 1.36059375 7.61484375 0.20390625 0.5484374999999999 -0.060646874999999996 1.16015625 -0.588909375 1.3499999999999999 -0.125540625 0.047812499999999994 -0.25944375 0.06974999999999999 -0.393665625 0.0645 -0.13423125 -0.00525 -0.266015625 -0.037593749999999995 -0.387421875 -0.09496875 -0.12142499999999999 -0.05746875 -0.22996875 -0.1389375 -0.319125 -0.23943750000000003 -0.08915625 -0.1005 -0.157078125 -0.21787499999999999 -0.199696875 -0.34528125000000004 -0.98026875 -2.6746875 -1.48245 -5.50096875 -1.48359375 -8.34965625 0 -2.53125 0.467578125 -4.83403125 1.381640625 -6.834375 2.702709375 -5.88871875 8.695959375000001 -9.703125 15.257896874999998 -9.703125 9.2443125 0 16.76165625 7.40390625 16.76165625 16.51640625 0 3.4171875 -2.80378125 6.2015625000000005 -6.2578125 6.2015625000000005 -3.4541250000000003 0 -6.25790625 -2.7843750000000003 -6.25790625 -6.2015625000000005 0.0009375 -2.2570312500000003 -1.8886875 -4.095750000000001 -4.22484375 -4.095750000000001s-4.225781250000001 1.83515625 -4.225781250000001 4.0921875000000005c0 3.6035625 1.3411875000000002 6.982125000000001 3.7995000000000005 9.513375 1.93359375 1.9828125 3.77925 3.076125 6.6436874999999995 3.9023437499999996 0.5484374999999999 0.14765625 0.85340625 0.73828125 0.711 1.2867187500000001 -0.04434375 0.2225625 -0.163125 0.42356249999999995 -0.33675 0.5698125 -0.17353125 0.14625 -0.3916875 0.22921875 -0.61865625 0.23521875Z" stroke-width="3"></path></svg>