<svg xmlns="http://www.w3.org/2000/svg" fill="none" viewBox="0 0 48 48" id="People-Outline--Streamline-Ionic-Outline.svg"><desc>People Outline Streamline Icon: https://streamlinehq.com</desc><path stroke="#c9ddfd" stroke-linecap="round" stroke-linejoin="round" stroke-width="3" d="M37.6877 15.752c-0.2746 3.8128 -3.1031 6.75 -6.1875 6.75 -3.0843 0 -5.9175 -2.9363 -6.1875 -6.75 -0.2812 -3.9666 2.4722 -6.75005 6.1875 -6.75005 3.7154 0 6.4688 2.85565 6.1875 6.75005Z"></path><path stroke="#c9ddfd" stroke-miterlimit="10" stroke-width="3" d="M31.5001 28.502c-6.1097 0 -11.985 3.0346 -13.4569 8.9447 -0.195 0.7818 0.2954 1.5553 1.0988 1.5553h24.7172c0.8034 0 1.2909 -0.7735 1.0988 -1.5553 -1.4719 -6.0047 -7.3472 -8.9447 -13.4579 -8.9447Z"></path><path stroke="#c9ddfd" stroke-linecap="round" stroke-linejoin="round" stroke-width="3" d="M18.7502 17.4343c-0.2194 3.045 -2.505 5.4432 -4.9688 5.4432 -2.4637 0 -4.75311 -2.3972 -4.96874 -5.4432 -0.22406 -3.1678 2.00064 -5.4319 4.96874 -5.4319 2.9682 0 5.1929 2.3222 4.9688 5.4319Z"></path><path stroke="#c9ddfd" stroke-linecap="round" stroke-miterlimit="10" stroke-width="3" d="M19.3129 28.6897c-1.6921 -0.7754 -3.5559 -1.0735 -5.5312 -1.0735 -4.87501 0 -9.57189 2.4235 -10.74846 7.1438 -0.15469 0.6243 0.23719 1.2422 0.87844 1.2422H14.4379"></path></svg>