<svg xmlns="http://www.w3.org/2000/svg" fill="none" viewBox="0 0 48 48" id="Folder-Open-Outline--Streamline-Ionic-Outline.svg"><desc>Folder Open Outline Streamline Icon: https://streamlinehq.com</desc><path stroke="#c9ddfd" stroke-linecap="round" stroke-linejoin="round" stroke-width="3" d="M6.00049 18.001v-6.75c0 -0.9946 0.39509 -1.94841 1.09835 -2.65168 0.70326 -0.70325 1.65709 -1.09834 2.65165 -1.09834h7.11471c0.7404 0.00002 1.4643 0.21922 2.0803 0.63l2.61 1.74c0.616 0.41082 1.3399 0.63002 2.0803 0.63002h14.6147c0.9946 0 1.9484 0.395 2.6517 1.0984 0.7033 0.7032 1.0983 1.657 1.0983 2.6516v3.75"></path><path stroke="#c9ddfd" stroke-linecap="round" stroke-linejoin="round" stroke-width="3" d="m44.9914 21.2405 -1.5207 15.511c0 0.9935 -0.3942 1.9462 -1.096 2.6494 -0.7018 0.703 -1.6539 1.0988 -2.6474 1.1006H8.2741c-0.99343 -0.0018 -1.94557 -0.3976 -2.64742 -1.1006 -0.70184 -0.7032 -1.09603 -1.6559 -1.09602 -2.6494l-1.52063 -15.511c-0.033 -0.4128 0.01982 -0.828 0.15515 -1.2194 0.13532 -0.3913 0.35021 -0.7504 0.63114 -1.0548 0.28093 -0.3042 0.62182 -0.547 1.00119 -0.7131 0.37938 -0.166 0.78902 -0.2517 1.20315 -0.2517H42.0101c0.4133 0.0013 0.822 0.0879 1.2002 0.2545 0.3783 0.1667 0.718 0.4097 0.998 0.7138 0.2799 0.3041 0.4939 0.6628 0.6286 1.0536 0.1349 0.3907 0.1874 0.8051 0.1545 1.2171Z"></path></svg>