<svg xmlns="http://www.w3.org/2000/svg" fill="none" viewBox="-1.5 -1.5 48 48" id="Cog-Outline--Streamline-Ionic-Outline.svg"><desc>Cog Outline Streamline Icon: https://streamlinehq.com</desc><path fill="#c9ddfd" d="m43.77928125 21.044437499999997 -2.764875 -0.44540625c-0.17859375 -0.02990625 -0.34275 -0.11634375 -0.46875 -0.24637499999999998 -0.12581250000000002 -0.1303125 -0.20681249999999998 -0.2971875 -0.231 -0.47653124999999996 -0.0530625 -0.33928125 -0.1059375 -0.6796875 -0.18028125 -1.00828125 -0.0358125 -0.1764375 -0.015281249999999998 -0.35971875 0.059062500000000004 -0.5236875 0.07415625 -0.16415625 0.19818750000000002 -0.3005625 0.35446875 -0.39009375l2.44790625 -1.3591875c0.18515625000000002 -0.09478125 0.32953125 -0.25387499999999996 0.40575 -0.44765625 0.07603125000000001 -0.1936875 0.0789375 -0.408375 0.00778125 -0.60403125l-0.42412500000000003 -1.16625c-0.07096875 -0.196125 -0.21215625 -0.358875 -0.39637500000000003 -0.45675000000000004 -0.18403125 -0.09796875 -0.3980625 -0.12403125 -0.6001875 -0.0733125l-2.7448125 0.5300625c-0.17840625 0.03459375 -0.3631875 0.010875 -0.52725 -0.06759375 -0.16396875 -0.078375 -0.29840625000000004 -0.20746875 -0.3834375 -0.36815625 -0.159 -0.2968125 -0.32859374999999996 -0.59390625 -0.508875 -0.8915624999999999 -0.09525 -0.1546875 -0.13921875 -0.33534375 -0.126 -0.51665625 0.0135 -0.181125 0.08334375000000001 -0.3534375 0.20015625 -0.49256249999999996l1.83309375 -2.1140624999999997c0.14221875 -0.1513125 0.22396875 -0.34940625 0.2296875 -0.55696875 0.00590625 -0.207375 -0.06459375 -0.409875 -0.19790625 -0.568875l-0.7940625 -0.9541875000000001c-0.132375 -0.16040625 -0.3196875 -0.26578124999999997 -0.5255624999999999 -0.2953125 -0.20596875 -0.02971875 -0.41540625 0.01865625 -0.5876250000000001 0.13528125000000002L35.450625 9.13125c-0.1546875 0.09159375 -0.33440625 0.13171875000000002 -0.513375 0.1145625 -0.17896874999999998 -0.0170625 -0.34790625 -0.0905625 -0.48224999999999996 -0.21 -0.2544375 -0.2236875 -0.519375 -0.44634375000000004 -0.78440625 -0.6594375 -0.14109375 -0.11193750000000001 -0.24271875 -0.26596875000000003 -0.2904375 -0.4395 -0.047625 -0.17371875 -0.0388125 -0.35803125 0.025312499999999998 -0.5263125l0.9966562499999999 -2.623875c0.08484375 -0.19040625 0.09646875 -0.40528125000000004 0.03290625 -0.60375s-0.19790625 -0.36665625 -0.37753125 -0.4723125l-1.08140625 -0.626625c-0.18046875 -0.10246875 -0.39215625 -0.1351875 -0.59521875 -0.09196875 -0.20306249999999998 0.043125 -0.38315625000000003 0.15928124999999999 -0.5061562500000001 0.32634375000000004l-1.7641875 2.20940625c-0.098625 0.13903125 -0.24103125 0.24074999999999996 -0.404625 0.28884375 -0.1635 0.04809375 -0.3384375 0.03975 -0.49649999999999994 -0.0238125 0 0 -0.59371875 -0.24384375 -1.03903125 -0.393375 -0.1708125 -0.05690625 -0.319125 -0.16668750000000002 -0.42328125 -0.31340625 -0.10425 -0.14681249999999998 -0.15909374999999998 -0.32287499999999997 -0.15665625 -0.502875l0.04246875 -2.8041562499999997c0.012375 -0.20859375 -0.05184375 -0.4145625 -0.18075 -0.5790000000000001 -0.1288125 -0.16443750000000001 -0.3135 -0.276 -0.51890625 -0.3136875L25.70446875 0.6742499999999999c-0.20568750000000002 -0.035625 -0.41728125 0.00525 -0.595125 0.11474999999999999 -0.17765625000000002 0.1095 -0.30909375 0.28031249999999996 -0.36965624999999996 0.48l-0.9118125 2.6557500000000003c-0.05840625 0.17118750000000002 -0.17015625 0.31921875 -0.31875000000000003 0.42234375 -0.14859375 0.10321875 -0.32625 0.1561875 -0.50709375 0.15121875h-1.0389375c-0.18065625000000002 0.0038437500000000004 -0.35775 -0.049593750000000006 -0.5061562500000001 -0.152625 -0.1483125 -0.10303124999999999 -0.26025000000000004 -0.25040625 -0.3196875 -0.4209375l-0.9118125 -2.6557500000000003c-0.060562500000000005 -0.1996875 -0.19209375 -0.3705 -0.36974999999999997 -0.48 -0.17765625000000002 -0.10959375 -0.38925 -0.15037499999999998 -0.5949375 -0.11474999999999999l-1.22878125 0.21206250000000001c-0.20559375 0.0376875 -0.39009375 0.14925 -0.51909375 0.3136875 -0.12890625 0.16443750000000001 -0.193125 0.37040625 -0.1805625 0.5790000000000001l0.042374999999999996 2.8041562499999997c0.00253125 0.18037499999999998 -0.052593749999999995 0.35700000000000004 -0.1573125 0.504 -0.10453125 0.147 -0.25340625 0.25678124999999996 -0.4246875 0.3133125 -0.24393749999999997 0.09543750000000001 -0.774 0.2979375 -1.0284375 0.393375 -0.2968125 0.10603125000000001 -0.6466875 0.021187499999999998 -0.9329062499999999 -0.30853125l-1.7503125 -2.15634375c-0.12384375 -0.16640624999999998 -0.30421875 -0.281625 -0.5071875 -0.324 -0.20296875 -0.04246875 -0.41446875 -0.009 -0.594375 0.0939375l-1.0813125 0.62653125c-0.1801875 0.1036875 -0.31537499999999996 0.27028125000000003 -0.38006249999999997 0.4678125 -0.06459375 0.19743750000000002 -0.054 0.41184375 0.0301875 0.601875l0.99646875 2.623875c0.063 0.16856249999999998 0.07134375 0.3525 0.02371875 0.5258437499999999 -0.047531250000000004 0.1734375 -0.14859375 0.327375 -0.28865625 0.44006249999999997 -0.265125 0.21206250000000001 -0.53015625 0.43565625 -0.78459375 0.65934375 -0.1344375 0.11943750000000002 -0.30328125 0.1929375 -0.48234374999999996 0.21 -0.17878125 0.01725 -0.35859375 -0.022875000000000003 -0.5131875 -0.11446875L7.12921875 7.672499999999999c-0.17306249999999998 -0.11390625 -0.38184375 -0.1605 -0.5870624999999999 -0.13096875 -0.20503125 0.029531250000000002 -0.39225 0.13293750000000001 -0.5261250000000001 0.29109375L5.221875000000001 8.78671875c-0.13340625 0.159 -0.2038125 0.3615 -0.198 0.5690625 0.00590625 0.207375 0.08765625 0.40546875 0.22978125000000002 0.55678125l1.8331875 2.11396875c0.1190625 0.138 0.1906875 0.31068749999999995 0.204 0.492375 0.013312500000000001 0.181875 -0.03225 0.3631875 -0.12984375 0.5169375 -0.1801875 0.28275 -0.349875 0.5799375 -0.508875 0.8915624999999999 -0.08653124999999999 0.15946875 -0.22115625 0.28734375 -0.38475 0.36571875 -0.1635 0.07828125000000001 -0.347625 0.10265625 -0.5260312500000001 0.070125l-2.74471875 -0.53015625c-0.20221875 -0.0493125 -0.4155 -0.02259375 -0.59925 0.07518749999999999 -0.18384375 0.09778125 -0.32521875 0.2596875 -0.3973125 0.45496875000000003l-0.42412500000000003 1.16615625c-0.07115624999999999 0.19565625 -0.06834375000000001 0.41034375 0.00778125 0.60403125 0.076125 0.19378125 0.22040625 0.352875 0.40575 0.44765625l2.44471875 1.360125c0.157875 0.08775000000000001 0.28321874999999996 0.22415625 0.35775 0.3886875 0.0744375 0.16453125 0.0939375 0.34875 0.0556875 0.5251875 -0.0635625 0.33928125 -0.12721875 0.669 -0.1801875 1.00828125 -0.02540625 0.17896874999999998 -0.106875 0.34518750000000004 -0.23249999999999998 0.47503125 -0.12571875 0.1299375 -0.28921874999999997 0.21665625 -0.46725 0.24796875000000002l-2.764875 0.44521875c-0.20578125 0.02540625 -0.39534375 0.12440625000000001 -0.53371875 0.2788125 -0.13846875 0.1543125 -0.2161875 0.35371875 -0.219 0.56090625v1.2425625c-0.002625 0.208875 0.0733125 0.41109375 0.21271874999999998 0.5665312499999999 0.13940625 0.15534374999999997 0.33215625 0.2529375 0.5399999999999999 0.27309375l2.764875 0.44521875c0.17859375 0.0301875 0.34275 0.11662499999999999 0.46865625 0.24665625 0.12590625 0.13003125 0.20690625 0.29709375 0.23109375 0.47643749999999996 0.05296875 0.33928125 0.10603125000000001 0.67959375 0.1801875 1.00828125 0.03590625 0.17634375 0.015281249999999998 0.35971875 -0.05896875 0.52378125 -0.07425000000000001 0.16396875 -0.19828125 0.3005625 -0.35446875 0.38999999999999996l-2.44790625 1.3613437499999999c-0.18534374999999997 0.09478125 -0.329625 0.25387499999999996 -0.40575 0.4475625 -0.076125 0.19378125 -0.0789375 0.40846875 -0.00778125 0.604125l0.42412500000000003 1.16615625c0.07096875 0.196125 0.21215625 0.358875 0.39628125000000003 0.45684375 0.18412499999999998 0.097875 0.39796875 0.12403125 0.60028125 0.07321875l2.74471875 -0.5300625c0.17850000000000002 -0.0345 0.36328125 -0.01078125 0.52734375 0.06759375 0.16387500000000002 0.07846875 0.2983125 0.20746875 0.3834375 0.3680625 0.159 0.29690625 0.3286875 0.5940937500000001 0.508875 0.8916562499999999 0.09515625000000001 0.15478125 0.13921875 0.3354375 0.12581250000000002 0.51665625 -0.01340625 0.181125 -0.08325 0.35353124999999996 -0.2000625 0.49265624999999996l-1.833 2.11603125c-0.14221875 0.1513125 -0.22396875 0.34950000000000003 -0.22978125000000002 0.55696875 -0.00590625 0.20746875 0.0645 0.40996875 0.19790625 0.56896875l0.79415625 0.9541875000000001c0.13228125000000002 0.16040625 0.3196875 0.26568749999999997 0.52546875 0.2955 0.205875 0.0294375 0.4155 -0.01865625 0.5876250000000001 -0.135375l2.40553125 -1.4451562500000001c0.15459375 -0.09159375 0.33440625 -0.13171875000000002 0.51328125 -0.1145625 0.17896874999999998 0.01725 0.34790625 0.09075 0.48224999999999996 0.21 0.2544375 0.2236875 0.51946875 0.44634375000000004 0.78459375 0.6594375 0.14090624999999998 0.11203125 0.24253124999999998 0.2660625 0.29025 0.43968749999999995 0.047625 0.17371875 0.0388125 0.35793749999999996 -0.02521875 0.5261250000000001l-0.9965624999999999 2.62396875c-0.08353125 0.19059375 -0.0939375 0.40528125000000004 -0.0294375 0.6031875 0.0645 0.1978125 0.19949999999999998 0.3650625 0.3793125 0.46978125l1.0813125 0.6264375c0.18046875 0.1025625 0.39225 0.135375 0.59521875 0.09206249999999999 0.20296875 -0.043125 0.38315625000000003 -0.1591875 0.50634375 -0.32625l1.78003125 -2.1883125c0.2225625 -0.27553125 0.58303125 -0.39215625 0.8692500000000001 -0.27553125 0.3605625 0.1483125 0.6043124999999999 0.23315625 1.04953125 0.38259375 0.171375 0.05671875 0.32025000000000003 0.1665 0.424875 0.3135 0.10462500000000001 0.147 0.15984375 0.32353125 0.15721875 0.50390625l-0.042374999999999996 2.8041562499999997c-0.012468749999999999 0.20859375 0.05175 0.4145625 0.18065625000000002 0.5790000000000001 0.12890625 0.16443750000000001 0.3135 0.27609374999999997 0.51909375 0.3136875l1.22878125 0.21206250000000001c0.20559375 0.035625 0.41728125 -0.00525 0.5949375 -0.11465625 0.17765625000000002 -0.10959375 0.3091875 -0.28031249999999996 0.36974999999999997 -0.48009375l0.91171875 -2.65040625c0.05840625 -0.17128125 0.17015625 -0.319125 0.31865625 -0.4224375 0.1486875 -0.103125 0.32634375000000004 -0.1561875 0.5071875 -0.151125h1.03903125c0.18046875 -0.00375 0.35765625 0.049593750000000006 0.5060625 0.152625 0.1483125 0.103125 0.26015625000000003 0.2505 0.31978125 0.4209375l0.9118125 2.65040625c0.06046875 0.19978125000000002 0.19190625 0.3705 0.36965624999999996 0.48009375 0.17775 0.10940625 0.38934375 0.15028125 0.59503125 0.11465625l1.2286875 -0.21206250000000001c0.20550000000000002 -0.037593749999999995 0.3901875 -0.14925 0.51909375 -0.3136875 0.12890625 -0.16443750000000001 0.193125 -0.37040625 0.18065625000000002 -0.5790000000000001l-0.042374999999999996 -2.8041562499999997c-0.002625 -0.18037499999999998 0.0525 -0.35690625 0.157125 -0.50390625 0.10471875 -0.147 0.25349999999999995 -0.25678124999999996 0.42496875 -0.3135 0.44521875 -0.1494375 0.74203125 -0.2660625 1.01775 -0.372 0.27553125 -0.106125 0.6148125000000001 -0.106125 0.87984375 0.2225625l1.8023437500000001 2.22009375c0.12375 0.16753125 0.30478125 0.2836875 0.50878125 0.32634375000000004 0.20390625 0.04265625 0.41643749999999996 0.008718749999999999 0.597 -0.09525l1.0813125 -0.626625c0.18103125 -0.1035 0.31696875 -0.27075 0.38165625000000003 -0.46903124999999996 0.06468750000000001 -0.19828125 0.05334375 -0.4134375 -0.03178125 -0.60384375l-0.99646875 -2.62396875c-0.063 -0.16846875 -0.07134375 -0.3526875 -0.0238125 -0.5262187500000001 0.047531250000000004 -0.17353125 0.14859375 -0.32765625 0.28875 -0.440625 0.26503125 -0.21206250000000001 0.53015625 -0.43471875 0.78459375 -0.6584062500000001 0.13434375 -0.11925000000000001 0.3031875 -0.19275 0.48215624999999995 -0.21 0.178875 -0.01715625 0.35859375 0.0230625 0.51328125 0.11465625l2.3970937500000002 1.4491875c0.17296875 0.11390625 0.38175000000000003 0.16059375 0.586875 0.1310625 0.20503125 -0.0294375 0.39234375 -0.13303125 0.5263125 -0.29109375l0.79396875 -0.9541875000000001c0.13340625 -0.159 0.2038125 -0.3615 0.198 -0.5690625 -0.00590625 -0.207375 -0.08765625 -0.40546875 -0.22978125000000002 -0.55678125l-1.833 -2.11396875c-0.11925000000000001 -0.138 -0.19087500000000002 -0.31059375 -0.2041875 -0.492375 -0.01340625 -0.181875 0.03215625 -0.3631875 0.13003125 -0.5169375 0.18009375 -0.28621875 0.34978125 -0.58340625 0.508875 -0.8915624999999999 0.0864375 -0.15937500000000002 0.22096875 -0.28734375 0.38456250000000003 -0.36562500000000003 0.16359374999999998 -0.078375 0.347625 -0.10275000000000001 0.5261250000000001 -0.07021875l2.7448125 0.53015625c0.20203125 0.0493125 0.41540625 0.02259375 0.5990625 -0.07518749999999999 0.18384375 -0.09778125 0.32521875 -0.2596875 0.39740625 -0.45496875000000003l0.42403124999999997 -1.16615625c0.07115624999999999 -0.19565625 0.0684375 -0.41034375 -0.007687500000000001 -0.60403125 -0.07621875 -0.19378125 -0.2205 -0.352875 -0.40575 -0.44765625l-2.44790625 -1.3591875c-0.157875 -0.08775000000000001 -0.2833125 -0.22396875 -0.35765625 -0.38859374999999996 -0.07453125000000001 -0.16453125 -0.094125 -0.34865625 -0.05578125 -0.5251875 0.0635625 -0.33928125 0.12721875 -0.669 0.18009375 -1.00828125 0.0255 -0.178875 0.106875 -0.34509375 0.23249999999999998 -0.47503125 0.12562500000000001 -0.12984375 0.2893125 -0.21675 0.46734375 -0.247875l2.764875 -0.44540625c0.20568750000000002 -0.025312499999999998 0.39534375 -0.12440625000000001 0.533625 -0.27871875 0.13846875 -0.15440625000000002 0.21628124999999998 -0.35362499999999997 0.21909375 -0.56090625v-1.2446249999999999c-0.01153125 -0.20540624999999998 -0.09525 -0.40021875 -0.23615625 -0.550125 -0.14090624999999998 -0.15 -0.33028125 -0.24515625000000002 -0.5345625 -0.26934375ZM22.501593749999998 7.2335625c3.38625 -0.00140625 6.6765 1.12434375 9.35203125 3.19978125 2.675625 2.07553125 4.58409375 4.982625 5.42465625 8.262749999999999 0.06243750000000001 0.25021875000000005 0.06721875 0.51121875 0.0136875 0.7635000000000001 -0.0534375 0.2521875 -0.16387500000000002 0.48890625 -0.32259375 0.6921562499999999 -0.15871875000000002 0.20315625 -0.36178125 0.3675 -0.5934375000000001 0.48046874999999994 -0.23175 0.11296874999999999 -0.48618749999999994 0.17165625 -0.744 0.1715625H24.474656250000002c-0.29971875 0 -0.5940937500000001 -0.0793125 -0.85303125 -0.2300625 -0.25903125 -0.1505625 -0.47362499999999996 -0.367125 -0.62175 -0.62765625l-5.523375000000001 -9.7228125c-0.1288125 -0.226125 -0.20353125 -0.47868750000000004 -0.21909375 -0.73828125 -0.015375000000000002 -0.25959374999999996 0.029062499999999998 -0.5192812499999999 0.1299375 -0.75890625 0.1010625 -0.23971874999999998 0.25565625 -0.453 0.45225 -0.6234375000000001 0.19640625 -0.17025 0.42946875 -0.29325 0.68109375 -0.35915625 1.2994687500000002 -0.34096875000000004 2.63746875 -0.51225 3.9810000000000003 -0.50990625ZM7.23515625 22.5c-0.001875 -2.044125 0.40668750000000004 -4.06771875 1.2016875 -5.9510625 0.7948125 -1.88334375 1.95984375 -3.587625 3.4259999999999997 -5.01215625 0.18515625000000002 -0.18328125 0.40996875 -0.32146874999999997 0.6570937499999999 -0.40378125000000004 0.247125 -0.0823125 0.5098125 -0.1066875 0.76790625 -0.0710625 0.258 0.03553125 0.50446875 0.13003125 0.72 0.2761875 0.215625 0.14625 0.39478125 0.3399375 0.5235 0.5665312499999999l5.53828125 9.7471875c0.14634375 0.2563125 0.22321875 0.54628125 0.22321875 0.8413125s-0.076875 0.585 -0.22321875 0.84121875l-5.58384375 9.72178125c-0.12975 0.22593749999999999 -0.30965624999999997 0.418875 -0.5257499999999999 0.56390625 -0.216375 0.14521875 -0.46303125 0.2386875 -0.721125 0.273 -0.25818749999999996 0.0345 -0.52078125 0.009093750000000001 -0.76753125 -0.07425000000000001 -0.24665625 -0.0834375 -0.47090624999999997 -0.2225625 -0.65521875 -0.40640624999999997 -1.4518125 -1.42228125 -2.60484375 -3.1201874999999997 -3.39140625 -4.9939687500000005 -0.78665625 -1.87396875 -1.19109375 -3.8860312500000003 -1.18959375 -5.9184375Zm15.266437499999999 15.266437499999999c-1.3666875 0.0035625 -2.7281250000000004 -0.172875 -4.0486875 -0.5248125 -0.25162500000000004 -0.06665625 -0.48440625000000004 -0.1905 -0.68034375 -0.3616875 -0.19584375 -0.17128125 -0.34996875 -0.3853125 -0.44999999999999996 -0.62559375 -0.10003125 -0.2401875 -0.14334375000000002 -0.50034375 -0.12684375 -0.7599374999999999 0.0165 -0.25978125 0.092625 -0.51215625 0.22246875000000002 -0.7378125l5.574375 -9.70584375c0.14906250000000001 -0.25828125 0.36346875 -0.47259375 0.62184375 -0.62146875 0.258375 -0.14896875 0.5514374999999999 -0.2270625 0.8495625 -0.2266875h11.1733125c0.25771875 0 0.5119687500000001 0.058875 0.743625 0.17193750000000002 0.23165624999999998 0.1130625 0.4344375 0.27740625 0.5929687499999999 0.48046874999999994 0.15871875000000002 0.20334375000000002 0.26896875 0.43996875 0.32240625 0.6920625 0.053531249999999996 0.25209374999999995 0.048749999999999995 0.51309375 -0.0136875 0.7632187500000001 -0.84234375 3.27946875 -2.752125 6.1854375 -5.4283125 8.25975 -2.6761875 2.0743125 -5.966625 3.1989375 -9.35259375 3.19640625Z" stroke-width="3"></path></svg>