<svg xmlns="http://www.w3.org/2000/svg" fill="none" viewBox="0 0 48 48" id="Calendar-Outline--Streamline-Ionic-Outline.svg"><desc>Calendar Outline Streamline Icon: https://streamlinehq.com</desc><path stroke="#c9ddfd" stroke-linejoin="round" stroke-width="3" d="M40.8 5.5199H7.2c-2.7835 0 -5.04 2.2564 -5.04 5.04v30.24c0 2.7835 2.2565 5.04 5.04 5.04h33.6c2.7835 0 5.04 -2.2565 5.04 -5.04v-30.24c0 -2.7836 -2.2565 -5.04 -5.04 -5.04Z"></path><path fill="#c9ddfd" d="M28.1999 24.0004c1.3918 0 2.5201 -1.1283 2.5201 -2.5201 0 -1.3919 -1.1283 -2.5202 -2.5201 -2.5202 -1.3919 0 -2.5202 1.1283 -2.5202 2.5202 0 1.3918 1.1283 2.5201 2.5202 2.5201Z" stroke-width="3"></path><path fill="#c9ddfd" d="M36.5996 24.0004c1.3918 0 2.5201 -1.1283 2.5201 -2.5201 0 -1.3919 -1.1283 -2.5202 -2.5201 -2.5202 -1.3919 0 -2.5202 1.1283 -2.5202 2.5202 0 1.3918 1.1283 2.5201 2.5202 2.5201Z" stroke-width="3"></path><path fill="#c9ddfd" d="M28.1999 32.4004c1.3918 0 2.5201 -1.1283 2.5201 -2.5201 0 -1.3919 -1.1283 -2.5202 -2.5201 -2.5202 -1.3919 0 -2.5202 1.1283 -2.5202 2.5202 0 1.3918 1.1283 2.5201 2.5202 2.5201Z" stroke-width="3"></path><path fill="#c9ddfd" d="M36.5996 32.4004c1.3918 0 2.5201 -1.1283 2.5201 -2.5201 0 -1.3919 -1.1283 -2.5202 -2.5201 -2.5202 -1.3919 0 -2.5202 1.1283 -2.5202 2.5202 0 1.3918 1.1283 2.5201 2.5202 2.5201Z" stroke-width="3"></path><path fill="#c9ddfd" d="M11.399 32.4004c1.3919 0 2.5202 -1.1283 2.5202 -2.5201 0 -1.3919 -1.1283 -2.5202 -2.5202 -2.5202 -1.3918 0 -2.5201 1.1283 -2.5201 2.5202 0 1.3918 1.1283 2.5201 2.5201 2.5201Z" stroke-width="3"></path><path fill="#c9ddfd" d="M19.8001 32.4004c1.3918 0 2.5201 -1.1283 2.5201 -2.5201 0 -1.3919 -1.1283 -2.5202 -2.5201 -2.5202 -1.3918 0 -2.5201 1.1283 -2.5201 2.5202 0 1.3918 1.1283 2.5201 2.5201 2.5201Z" stroke-width="3"></path><path fill="#c9ddfd" d="M11.399 40.7999c1.3919 0 2.5202 -1.1283 2.5202 -2.5201 0 -1.392 -1.1283 -2.5203 -2.5202 -2.5203 -1.3918 0 -2.5201 1.1283 -2.5201 2.5203 0 1.3918 1.1283 2.5201 2.5201 2.5201Z" stroke-width="3"></path><path fill="#c9ddfd" d="M19.8001 40.7999c1.3918 0 2.5201 -1.1283 2.5201 -2.5201 0 -1.392 -1.1283 -2.5203 -2.5201 -2.5203 -1.3918 0 -2.5201 1.1283 -2.5201 2.5203 0 1.3918 1.1283 2.5201 2.5201 2.5201Z" stroke-width="3"></path><path fill="#c9ddfd" d="M28.1999 40.7999c1.3918 0 2.5201 -1.1283 2.5201 -2.5201 0 -1.392 -1.1283 -2.5203 -2.5201 -2.5203 -1.3919 0 -2.5202 1.1283 -2.5202 2.5203 0 1.3918 1.1283 2.5201 2.5202 2.5201Z" stroke-width="3"></path><path stroke="#c9ddfd" stroke-linecap="round" stroke-linejoin="round" stroke-width="3" d="M10.5595 2.1601v3.3611"></path><path stroke="#c9ddfd" stroke-linecap="round" stroke-linejoin="round" stroke-width="3" d="M37.44 2.1601v3.3611"></path><path stroke="#c9ddfd" stroke-linejoin="round" stroke-width="3" d="M45.84 13.9199H2.16"></path></svg>